<svg width="13" height="13" viewBox="0 0 13 13" fill="none" xmlns="http://www.w3.org/2000/svg">
<path d="M4.56264 5.55613L11.7656 0.607133C12.3376 0.224133 12.8066 0.505133 12.8066 1.23213V10.8411C12.8066 11.5661 12.3376 11.8471 11.7656 11.4661L4.56264 6.51513C4.56264 6.51513 4.28364 6.31613 4.28364 6.03713C4.28364 5.75713 4.56264 5.55613 4.56264 5.55613ZM2.80664 0.0361328H1.80664C1.25364 0.0361328 0.806641 0.0841327 0.806641 0.636133V11.4361C0.806641 11.9881 1.25364 12.0361 1.80664 12.0361H2.80664C3.35964 12.0361 3.80664 11.9881 3.80664 11.4361V0.636133C3.80664 0.0841327 3.35964 0.0361328 2.80664 0.0361328Z" fill="white"/>
</svg>
