<svg width="26" height="26" viewBox="0 0 26 26" fill="none" xmlns="http://www.w3.org/2000/svg">
<path d="M17.3559 4.1941C17.1803 4.36988 17.0817 4.60816 17.0817 4.8566C17.0817 5.10504 17.1803 5.34332 17.3559 5.5191L18.8809 7.0441H11.1434C9.59824 7.0441 8.08777 7.50229 6.80301 8.36074C5.51825 9.21919 4.5169 10.4393 3.92559 11.8669C3.33429 13.2944 3.17957 14.8653 3.48102 16.3807C3.78246 17.8962 4.52653 19.2883 5.61913 20.3809C6.71173 21.4735 8.10378 22.2175 9.61926 22.519C11.1347 22.8204 12.7056 22.6657 14.1331 22.0744C15.5607 21.4831 16.7808 20.4817 17.6393 19.197C18.4977 17.9122 18.9559 16.4018 18.9559 14.8566C18.9559 14.608 18.8571 14.3695 18.6813 14.1937C18.5055 14.0179 18.267 13.9191 18.0184 13.9191C17.7698 13.9191 17.5313 14.0179 17.3555 14.1937C17.1797 14.3695 17.0809 14.608 17.0809 14.8566C17.0809 16.0309 16.7327 17.1789 16.0803 18.1553C15.4278 19.1317 14.5005 19.8927 13.4156 20.3421C12.3306 20.7915 11.1368 20.9091 9.98505 20.68C8.83329 20.4509 7.77533 19.8854 6.94496 19.055C6.11458 18.2247 5.54909 17.1667 5.31999 16.0149C5.09089 14.8632 5.20847 13.6694 5.65787 12.5844C6.10726 11.4995 6.86829 10.5722 7.8447 9.91975C8.82112 9.26733 9.96908 8.9191 11.1434 8.9191H18.8809L17.3559 10.4441C17.1903 10.6218 17.1001 10.8569 17.1044 11.0998C17.1087 11.3426 17.2071 11.5744 17.3789 11.7461C17.5506 11.9179 17.7824 12.0163 18.0252 12.0206C18.2681 12.0249 18.5032 11.9347 18.6809 11.7691L21.8059 8.6441C21.9815 8.46832 22.0801 8.23004 22.0801 7.9816C22.0801 7.73316 21.9815 7.49488 21.8059 7.3191L18.6809 4.1941C18.5051 4.01853 18.2668 3.91992 18.0184 3.91992C17.77 3.91992 17.5317 4.01853 17.3559 4.1941Z" fill="white"/>
<path d="M9.44081 16.894V12.274L9.74181 12.603H8.33481V11.994H10.1338V16.894H9.44081ZM12.7876 16.95C12.4423 16.95 12.1063 16.8964 11.7796 16.789C11.4576 16.6817 11.194 16.537 10.9886 16.355L11.3106 15.802C11.474 15.956 11.6863 16.082 11.9476 16.18C12.209 16.278 12.4866 16.327 12.7806 16.327C13.154 16.327 13.441 16.2477 13.6416 16.089C13.8423 15.9304 13.9426 15.718 13.9426 15.452C13.9426 15.27 13.8983 15.1114 13.8096 14.976C13.721 14.8407 13.567 14.738 13.3476 14.668C13.133 14.5934 12.8366 14.556 12.4586 14.556H11.3456L11.6046 11.994H14.3696V12.603H11.8636L12.2276 12.26L12.0246 14.283L11.6606 13.947H12.6056C13.0956 13.947 13.49 14.01 13.7886 14.136C14.0873 14.262 14.3043 14.437 14.4396 14.661C14.575 14.8804 14.6426 15.1347 14.6426 15.424C14.6426 15.704 14.575 15.9607 14.4396 16.194C14.3043 16.4227 14.099 16.607 13.8236 16.747C13.553 16.8824 13.2076 16.95 12.7876 16.95Z" fill="white"/>
</svg>
