<svg width="20" height="16" viewBox="0 0 20 16" fill="none" xmlns="http://www.w3.org/2000/svg">
<path d="M17.4753 8.10635C17.4578 9.4688 16.9282 10.7748 15.9919 11.7647L17.1753 12.948C18.4218 11.6424 19.1249 9.91141 19.1419 8.10635C19.1265 7.01649 18.867 5.94394 18.3825 4.96761C17.8979 3.99128 17.2006 3.13599 16.3419 2.46468C16.2577 2.39464 16.1604 2.34189 16.0558 2.30943C15.9511 2.27697 15.8411 2.26544 15.732 2.2755C15.6229 2.28556 15.5168 2.31701 15.4199 2.36806C15.3229 2.41911 15.237 2.48875 15.1669 2.57302C15.0969 2.65728 15.0441 2.75451 15.0117 2.85917C14.9792 2.96382 14.9677 3.07384 14.9777 3.18295C14.9878 3.29206 15.0193 3.39812 15.0703 3.49507C15.1214 3.59203 15.191 3.67798 15.2753 3.74802C15.9436 4.26457 16.488 4.92402 16.8687 5.67811C17.2493 6.4322 17.4566 7.26184 17.4753 8.10635ZM12.4753 8.24801V1.43968C12.4765 1.28695 12.4358 1.1368 12.3575 1.00565C12.2793 0.874489 12.1665 0.767366 12.0314 0.695981C11.8964 0.624596 11.7444 0.591694 11.5919 0.600871C11.4394 0.610048 11.2924 0.660949 11.1669 0.748015L7.47526 3.27302L12.4753 8.24801ZM3.92526 4.41468H1.64193C1.42091 4.41468 1.20895 4.50248 1.05267 4.65876C0.896391 4.81504 0.808594 5.027 0.808594 5.24801V10.9647C0.808594 11.1857 0.896391 11.3977 1.05267 11.5539C1.20895 11.7102 1.42091 11.798 1.64193 11.798H5.80859L11.1503 15.4647C11.2966 15.5594 11.4677 15.6087 11.6419 15.6063C11.8629 15.6063 12.0749 15.5186 12.2312 15.3623C12.3875 15.206 12.4753 14.994 12.4753 14.773V12.9647L3.92526 4.41468ZM3.90026 0.848015C3.82256 0.770316 3.73032 0.708682 3.6288 0.666632C3.52728 0.624582 3.41848 0.602939 3.30859 0.602939C3.19871 0.602939 3.0899 0.624582 2.98839 0.666632C2.88687 0.708682 2.79463 0.770316 2.71693 0.848015C2.56001 1.00493 2.47185 1.21776 2.47185 1.43968C2.47185 1.6616 2.56001 1.87443 2.71693 2.03135L16.0503 15.3647C16.1277 15.4428 16.2199 15.5048 16.3214 15.5471C16.423 15.5894 16.5319 15.6112 16.6419 15.6112C16.7519 15.6112 16.8609 15.5894 16.9624 15.5471C17.064 15.5048 17.1561 15.4428 17.2336 15.3647C17.3117 15.2872 17.3737 15.195 17.416 15.0935C17.4583 14.9919 17.4801 14.883 17.4801 14.773C17.4801 14.663 17.4583 14.5541 17.416 14.4525C17.3737 14.351 17.3117 14.2588 17.2336 14.1813L3.90026 0.848015Z" fill="white"/>
</svg>
