<svg width="8" height="10" viewBox="0 0 8 10" fill="none" xmlns="http://www.w3.org/2000/svg">
<path d="M1.22201 0C1.44302 0 1.65498 0.0877975 1.81126 0.244078C1.96754 0.400358 2.05534 0.61232 2.05534 0.833333V9.16667C2.05534 9.38768 1.96754 9.59964 1.81126 9.75592C1.65498 9.9122 1.44302 10 1.22201 10C1.00099 10 0.78903 9.9122 0.63275 9.75592C0.476469 9.59964 0.388672 9.38768 0.388672 9.16667V0.833333C0.388672 0.61232 0.476469 0.400358 0.63275 0.244078C0.78903 0.0877975 1.00099 0 1.22201 0ZM6.222 0C6.44302 0 6.65498 0.0877975 6.81126 0.244078C6.96754 0.400358 7.05534 0.61232 7.05534 0.833333V9.16667C7.05534 9.38768 6.96754 9.59964 6.81126 9.75592C6.65498 9.9122 6.44302 10 6.222 10C6.00099 10 5.78903 9.9122 5.63275 9.75592C5.47647 9.59964 5.38867 9.38768 5.38867 9.16667V0.833333C5.38867 0.61232 5.47647 0.400358 5.63275 0.244078C5.78903 0.0877975 6.00099 0 6.222 0Z" fill="white"/>
</svg>