<svg width="26" height="26" viewBox="0 0 26 26" fill="none" xmlns="http://www.w3.org/2000/svg">
<path d="M7.74175 3.19385C7.91732 3.36963 8.01593 3.60791 8.01593 3.85635C8.01593 4.10479 7.91732 4.34307 7.74175 4.51885L6.21675 6.04385H13.9543C15.4994 6.04385 17.0099 6.50205 18.2946 7.3605C19.5794 8.21894 20.5808 9.43909 21.1721 10.8666C21.7634 12.2942 21.9181 13.865 21.6166 15.3805C21.3152 16.896 20.5711 18.288 19.4785 19.3806C18.3859 20.4732 16.9939 21.2173 15.4784 21.5187C13.9629 21.8202 12.3921 21.6655 10.9645 21.0742C9.53699 20.4829 8.31684 19.4815 7.4584 18.1967C6.59995 16.912 6.14175 15.4015 6.14175 13.8564C6.14175 13.6077 6.24053 13.3693 6.41634 13.1934C6.59216 13.0176 6.83061 12.9189 7.07925 12.9189C7.32789 12.9189 7.56635 13.0176 7.74217 13.1934C7.91798 13.3693 8.01675 13.6077 8.01675 13.8564C8.01675 15.0307 8.36498 16.1786 9.0174 17.1551C9.66982 18.1315 10.5971 18.8925 11.6821 19.3419C12.767 19.7913 13.9608 19.9089 15.1126 19.6798C16.2644 19.4507 17.3223 18.8852 18.1527 18.0548C18.9831 17.2244 19.5486 16.1665 19.7777 15.0147C20.0068 13.8629 19.8892 12.6691 19.4398 11.5842C18.9904 10.4992 18.2294 9.57192 17.253 8.9195C16.2765 8.26708 15.1286 7.91885 13.9543 7.91885H6.21675L7.74175 9.44385C7.90735 9.62157 7.99751 9.85663 7.99322 10.0995C7.98894 10.3424 7.89055 10.5741 7.71878 10.7459C7.54701 10.9176 7.31528 11.016 7.07241 11.0203C6.82953 11.0246 6.59447 10.9345 6.41675 10.7689L3.29175 7.64385C3.11619 7.46807 3.01758 7.22979 3.01758 6.98135C3.01758 6.73291 3.11619 6.49463 3.29175 6.31885L6.41675 3.19385C6.59253 3.01829 6.83081 2.91968 7.07925 2.91968C7.32769 2.91968 7.56597 3.01829 7.74175 3.19385Z" fill="white"/>
<path d="M11.2826 16.366V11.746L11.5836 12.075H10.1766V11.466H11.9756V16.366H11.2826ZM14.6294 16.422C14.2841 16.422 13.9481 16.3683 13.6214 16.261C13.2994 16.1536 13.0358 16.009 12.8304 15.827L13.1524 15.274C13.3158 15.428 13.5281 15.554 13.7894 15.652C14.0508 15.75 14.3284 15.799 14.6224 15.799C14.9958 15.799 15.2828 15.7196 15.4834 15.561C15.6841 15.4023 15.7844 15.19 15.7844 14.924C15.7844 14.742 15.7401 14.5833 15.6514 14.448C15.5628 14.3126 15.4088 14.21 15.1894 14.14C14.9748 14.0653 14.6784 14.028 14.3004 14.028H13.1874L13.4464 11.466H16.2114V12.075H13.7054L14.0694 11.732L13.8664 13.755L13.5024 13.419H14.4474C14.9374 13.419 15.3318 13.482 15.6304 13.608C15.9291 13.734 16.1461 13.909 16.2814 14.133C16.4168 14.3523 16.4844 14.6066 16.4844 14.896C16.4844 15.176 16.4168 15.4326 16.2814 15.666C16.1461 15.8946 15.9408 16.079 15.6654 16.219C15.3948 16.3543 15.0494 16.422 14.6294 16.422Z" fill="white"/>
</svg>
