<svg width="20" height="16" viewBox="0 0 20 16" fill="none" xmlns="http://www.w3.org/2000/svg">
<path d="M16.3673 2.15111C16.2831 2.08107 16.1858 2.02831 16.0812 1.99585C15.9765 1.96339 15.8665 1.95186 15.7574 1.96192C15.6483 1.97198 15.5422 2.00343 15.4453 2.05448C15.3483 2.10553 15.2624 2.17518 15.1923 2.25944C15.1223 2.34371 15.0695 2.44094 15.0371 2.54559C15.0046 2.65025 14.9931 2.76027 15.0031 2.86938C15.0132 2.97849 15.0446 3.08454 15.0957 3.1815C15.1467 3.27845 15.2164 3.3644 15.3007 3.43444C15.969 3.951 16.5134 4.61045 16.8941 5.36453C17.2747 6.11862 17.482 6.94827 17.5006 7.79277C17.482 8.63728 17.2747 9.46693 16.8941 10.221C16.5134 10.9751 15.969 11.6345 15.3007 12.1511C15.2163 12.2211 15.1465 12.307 15.0954 12.4039C15.0443 12.5009 15.0128 12.607 15.0027 12.7161C14.9926 12.8253 15.0042 12.9353 15.0367 13.04C15.0693 13.1447 15.1221 13.2419 15.1923 13.3261C15.2707 13.4202 15.3688 13.4958 15.4797 13.5477C15.5906 13.5995 15.7116 13.6263 15.834 13.6261C16.0287 13.6265 16.2174 13.5587 16.3673 13.4344C17.226 12.7631 17.9233 11.9078 18.4079 10.9315C18.8924 9.95518 19.1519 8.88263 19.1673 7.79277C19.1519 6.70292 18.8924 5.63037 18.4079 4.65403C17.9233 3.6777 17.226 2.82242 16.3673 2.15111V2.15111ZM12.059 0.392773C11.9323 0.319633 11.7886 0.281128 11.6423 0.281128C11.496 0.281128 11.3523 0.319633 11.2257 0.392773L5.83398 4.10111H1.66732C1.4463 4.10111 1.23434 4.1889 1.07806 4.34518C0.921782 4.50146 0.833984 4.71343 0.833984 4.93444V10.6511C0.833984 10.8721 0.921782 11.0841 1.07806 11.2404C1.23434 11.3966 1.4463 11.4844 1.66732 11.4844H5.83398L11.1756 15.1511C11.322 15.2458 11.493 15.2951 11.6673 15.2928C11.8883 15.2928 12.1003 15.205 12.2566 15.0487C12.4129 14.8924 12.5006 14.6805 12.5006 14.4594V1.12611C12.5002 0.975353 12.459 0.827532 12.3812 0.698392C12.3034 0.569251 12.192 0.463627 12.059 0.392773Z" fill="white"/>
</svg>
