<svg width="21" height="21" viewBox="0 0 21 21" fill="none" xmlns="http://www.w3.org/2000/svg">
<path d="M15.5467 7.1892C15.4075 7.01681 15.2055 6.9068 14.9851 6.88335C14.7648 6.85991 14.5441 6.92497 14.3717 7.0642C14.1993 7.20344 14.0893 7.40546 14.0659 7.62582C14.0424 7.84617 14.1075 8.06681 14.2467 8.2392C14.6677 8.81163 14.8948 9.50362 14.8948 10.2142C14.8948 10.9248 14.6677 11.6168 14.2467 12.1892C14.1474 12.3117 14.0848 12.4598 14.0663 12.6164C14.0478 12.773 14.0741 12.9317 14.1422 13.0739C14.2102 13.2162 14.3173 13.3362 14.4509 13.42C14.5844 13.5039 14.739 13.5481 14.8967 13.5475C15.0212 13.548 15.1442 13.5205 15.2567 13.4671C15.3692 13.4138 15.4683 13.3359 15.5467 13.2392C16.2077 12.3693 16.5656 11.3068 16.5656 10.2142C16.5656 9.12163 16.2077 8.05914 15.5467 7.1892Z" fill="white"/>
<path d="M16.6798 4.57237C16.5956 4.50233 16.4983 4.44958 16.3937 4.41712C16.289 4.38466 16.179 4.37313 16.0699 4.38319C15.9608 4.39325 15.8547 4.4247 15.7578 4.47575C15.6608 4.5268 15.5749 4.59644 15.5048 4.6807C15.4348 4.76497 15.382 4.8622 15.3496 4.96686C15.3171 5.07151 15.3056 5.18153 15.3156 5.29064C15.3257 5.39975 15.3571 5.50581 15.4082 5.60276C15.4592 5.69972 15.5289 5.78567 15.6132 5.8557C16.2815 6.37226 16.8259 7.03171 17.2066 7.7858C17.5872 8.53988 17.7945 9.36953 17.8131 10.214C17.7945 11.0585 17.5872 11.8882 17.2066 12.6423C16.8259 13.3964 16.2815 14.0558 15.6132 14.5724C15.5288 14.6423 15.459 14.7282 15.4079 14.8252C15.3568 14.9222 15.3253 15.0282 15.3152 15.1374C15.3051 15.2465 15.3167 15.3566 15.3492 15.4613C15.3818 15.5659 15.4346 15.6632 15.5048 15.7474C15.5832 15.8414 15.6813 15.9171 15.7922 15.9689C15.9031 16.0208 16.0241 16.0476 16.1465 16.0474C16.3412 16.0478 16.5299 15.9799 16.6798 15.8557C17.5385 15.1844 18.2358 14.3291 18.7204 13.3528C19.2049 12.3764 19.4644 11.3039 19.4798 10.214C19.4644 9.12418 19.2049 8.05163 18.7204 7.0753C18.2358 6.09896 17.5385 5.24368 16.6798 4.57237ZM12.3715 2.81404C12.2448 2.7409 12.1011 2.70239 11.9548 2.70239C11.8085 2.70239 11.6648 2.7409 11.5381 2.81404L6.14648 6.52237H1.97982C1.7588 6.52237 1.54684 6.61017 1.39056 6.76645C1.23428 6.92273 1.14648 7.13469 1.14648 7.3557V13.0724C1.14648 13.2934 1.23428 13.5053 1.39056 13.6616C1.54684 13.8179 1.7588 13.9057 1.97982 13.9057H6.14648L11.4881 17.5724C11.6345 17.6671 11.8055 17.7164 11.9798 17.714C12.2008 17.714 12.4128 17.6262 12.5691 17.47C12.7254 17.3137 12.8132 17.1017 12.8132 16.8807V3.54737C12.8127 3.39662 12.7715 3.2488 12.6937 3.11966C12.6159 2.99052 12.5045 2.88489 12.3715 2.81404Z" fill="white"/>
</svg>
